<svg width="343" height="112" viewBox="0 0 343 112" fill="none" xmlns="http://www.w3.org/2000/svg">
<path d="M53.1936 71.5612C48.7633 71.5612 44.617 70.7944 40.7547 69.2608C36.8924 67.6705 33.5129 65.4837 30.6162 62.7006C27.7762 59.9175 25.5327 56.68 23.8855 52.9881C22.2952 49.2394 21.5 45.2067 21.5 40.89C21.5 36.5165 22.2952 32.4838 23.8855 28.7919C25.5327 25.0432 27.8046 21.7773 30.7014 18.9942C33.5981 16.211 36.9492 14.0527 40.7547 12.5191C44.617 10.9288 48.7633 10.1336 53.1936 10.1336C56.4879 10.1336 59.6686 10.588 62.7357 11.4968C65.8028 12.4055 68.6428 13.6835 71.2555 15.3307C73.925 16.9778 76.197 18.9658 78.0713 21.2945L69.7219 29.5587C67.5636 26.8892 65.0645 24.8728 62.2245 23.5096C59.4414 22.1465 56.4311 21.4649 53.1936 21.4649C50.524 21.4649 48.0249 21.9761 45.6962 22.9985C43.3674 23.964 41.3511 25.3272 39.6471 27.0879C37.9432 28.7919 36.6084 30.8366 35.6428 33.2222C34.6773 35.5509 34.1945 38.1069 34.1945 40.89C34.1945 43.6163 34.6773 46.1722 35.6428 48.5578C36.6084 50.8865 37.9716 52.9313 39.7323 54.692C41.4931 56.396 43.5378 57.7307 45.8666 58.6963C48.2521 59.6619 50.8364 60.1447 53.6196 60.1447C56.7435 60.1447 59.6686 59.4915 62.3949 58.1851C65.1213 56.8788 67.5352 55.0044 69.6367 52.5621L77.7305 60.5707C75.8562 62.8426 73.6126 64.8022 70.9999 66.4493C68.3872 68.0965 65.5473 69.3744 62.4801 70.2832C59.4698 71.1352 56.3743 71.5612 53.1936 71.5612ZM90.0689 71.5612C88.1946 71.5612 86.5758 70.8796 85.2126 69.5164C83.8495 68.1533 83.1679 66.5345 83.1679 64.6602C83.1679 62.729 83.8495 61.0819 85.2126 59.7187C86.5758 58.3555 88.1946 57.6739 90.0689 57.6739C91.9433 57.6739 93.562 58.3555 94.9252 59.7187C96.2883 61.0819 96.9699 62.729 96.9699 64.6602C96.9699 66.5345 96.2883 68.1533 94.9252 69.5164C93.562 70.8796 91.9433 71.5612 90.0689 71.5612ZM101.21 70.7092L125.747 11.0708H139.975L164.256 70.7092H150.88L144.831 55.0328H120.209L114.075 70.7092H101.21ZM124.043 45.1499H141.082L132.563 23.1688L124.043 45.1499ZM175.433 71.5612C173.559 71.5612 171.94 70.8796 170.577 69.5164C169.214 68.1533 168.532 66.5345 168.532 64.6602C168.532 62.729 169.214 61.0819 170.577 59.7187C171.94 58.3555 173.559 57.6739 175.433 57.6739C177.307 57.6739 178.926 58.3555 180.289 59.7187C181.653 61.0819 182.334 62.729 182.334 64.6602C182.334 66.5345 181.653 68.1533 180.289 69.5164C178.926 70.8796 177.307 71.5612 175.433 71.5612ZM217.179 71.6464C212.748 71.6464 208.63 70.8796 204.825 69.346C201.019 67.7557 197.668 65.5689 194.772 62.7858C191.932 59.9459 189.688 56.68 188.041 52.9881C186.451 49.2394 185.655 45.2067 185.655 40.89C185.655 36.5733 186.451 32.569 188.041 28.8771C189.688 25.1284 191.932 21.8625 194.772 19.0794C197.668 16.2394 201.019 14.0527 204.825 12.5191C208.63 10.9288 212.748 10.1336 217.179 10.1336C221.609 10.1336 225.727 10.9288 229.532 12.5191C233.395 14.0527 236.746 16.2394 239.586 19.0794C242.482 21.8625 244.726 25.1284 246.316 28.8771C247.907 32.569 248.702 36.5733 248.702 40.89C248.702 45.2067 247.907 49.2394 246.316 52.9881C244.726 56.68 242.482 59.9459 239.586 62.7858C236.746 65.5689 233.395 67.7557 229.532 69.346C225.727 70.8796 221.609 71.6464 217.179 71.6464ZM217.179 60.3151C219.905 60.3151 222.404 59.8323 224.676 58.8667C226.948 57.8443 228.936 56.4812 230.64 54.7772C232.344 53.0165 233.679 50.9433 234.644 48.5578C235.61 46.1722 236.093 43.6163 236.093 40.89C236.093 38.1069 235.61 35.5509 234.644 33.2222C233.679 30.8366 232.344 28.7919 230.64 27.0879C228.936 25.3272 226.948 23.964 224.676 22.9985C222.404 21.9761 219.905 21.4649 217.179 21.4649C214.509 21.4649 212.038 21.9761 209.766 22.9985C207.495 23.964 205.507 25.3272 203.803 27.0879C202.099 28.7919 200.764 30.8366 199.798 33.2222C198.833 35.5509 198.35 38.0785 198.35 40.8048C198.35 43.5879 198.833 46.1722 199.798 48.5578C200.764 50.9433 202.099 53.0165 203.803 54.7772C205.507 56.4812 207.495 57.8443 209.766 58.8667C212.038 59.8323 214.509 60.3151 217.179 60.3151ZM259.05 71.5612C257.176 71.5612 255.557 70.8796 254.194 69.5164C252.831 68.1533 252.149 66.5345 252.149 64.6602C252.149 62.729 252.831 61.0819 254.194 59.7187C255.557 58.3555 257.176 57.6739 259.05 57.6739C260.924 57.6739 262.543 58.3555 263.906 59.7187C265.269 61.0819 265.951 62.729 265.951 64.6602C265.951 66.5345 265.269 68.1533 263.906 69.5164C262.543 70.8796 260.924 71.5612 259.05 71.5612ZM296.367 71.5612C291.539 71.5612 286.825 70.6808 282.224 68.92C277.623 67.1025 273.534 64.5466 269.955 61.2522L277.027 52.3917C280.491 55.4588 283.814 57.6739 286.995 59.0371C290.232 60.4003 293.64 61.0819 297.219 61.0819C299.718 61.0819 301.876 60.7979 303.694 60.2299C305.511 59.6051 306.903 58.7247 307.868 57.5887C308.891 56.4528 309.402 55.118 309.402 53.5845C309.402 51.5397 308.664 49.9777 307.187 48.8986C305.71 47.7626 303.182 46.8822 299.604 46.2574L287.762 44.2127C282.707 43.3607 278.844 41.5716 276.175 38.8452C273.562 36.1189 272.256 32.5974 272.256 28.2807C272.256 24.5888 273.193 21.3797 275.067 18.6534C276.998 15.927 279.696 13.8539 283.161 12.4339C286.683 10.9572 290.857 10.2188 295.685 10.2188C300.059 10.2188 304.404 10.9572 308.72 12.4339C313.094 13.9107 316.956 15.9554 320.307 18.5682L313.662 27.7695C307.414 22.9985 301.138 20.6129 294.833 20.6129C292.618 20.6129 290.687 20.8969 289.04 21.4649C287.392 22.0329 286.115 22.8281 285.206 23.8504C284.354 24.816 283.928 25.9804 283.928 27.3435C283.928 29.1611 284.581 30.5811 285.887 31.6034C287.194 32.569 289.38 33.3074 292.448 33.8186L303.694 35.6929C309.657 36.6585 314.116 38.5612 317.07 41.4012C320.023 44.1843 321.5 47.8762 321.5 52.4769C321.5 56.3392 320.478 59.7187 318.433 62.6154C316.388 65.4553 313.463 67.6705 309.657 69.2608C305.909 70.7944 301.479 71.5612 296.367 71.5612Z" stroke="url(#paint0_linear_12_36)" stroke-width="5"/>
<path d="M6.62 106.796C5.84 106.796 5.11 106.661 4.43 106.391C3.75 106.111 3.155 105.726 2.645 105.236C2.145 104.746 1.75 104.176 1.46 103.526C1.18 102.866 1.04 102.156 1.04 101.396C1.04 100.626 1.18 99.9164 1.46 99.2664C1.75 98.6064 2.15 98.0314 2.66 97.5414C3.17 97.0514 3.76 96.6714 4.43 96.4014C5.11 96.1214 5.84 95.9814 6.62 95.9814C7.2 95.9814 7.76 96.0614 8.3 96.2214C8.84 96.3814 9.34 96.6064 9.8 96.8964C10.27 97.1864 10.67 97.5364 11 97.9464L9.53 99.4014C9.15 98.9314 8.71 98.5764 8.21 98.3364C7.72 98.0964 7.19 97.9764 6.62 97.9764C6.15 97.9764 5.71 98.0664 5.3 98.2464C4.89 98.4164 4.535 98.6564 4.235 98.9664C3.935 99.2664 3.7 99.6264 3.53 100.046C3.36 100.456 3.275 100.906 3.275 101.396C3.275 101.876 3.36 102.326 3.53 102.746C3.7 103.156 3.94 103.516 4.25 103.826C4.56 104.126 4.92 104.361 5.33 104.531C5.75 104.701 6.205 104.786 6.695 104.786C7.245 104.786 7.76 104.671 8.24 104.441C8.72 104.211 9.145 103.881 9.515 103.451L10.94 104.861C10.61 105.261 10.215 105.606 9.755 105.896C9.295 106.186 8.795 106.411 8.255 106.571C7.725 106.721 7.18 106.796 6.62 106.796ZM17.1369 106.811C16.3569 106.811 15.6319 106.676 14.9619 106.406C14.2919 106.126 13.7019 105.741 13.1919 105.251C12.6919 104.751 12.2969 104.176 12.0069 103.526C11.7269 102.866 11.5869 102.156 11.5869 101.396C11.5869 100.636 11.7269 99.9314 12.0069 99.2814C12.2969 98.6214 12.6919 98.0464 13.1919 97.5564C13.7019 97.0564 14.2919 96.6714 14.9619 96.4014C15.6319 96.1214 16.3569 95.9814 17.1369 95.9814C17.9169 95.9814 18.6419 96.1214 19.3119 96.4014C19.9919 96.6714 20.5819 97.0564 21.0819 97.5564C21.5919 98.0464 21.9869 98.6214 22.2669 99.2814C22.5469 99.9314 22.6869 100.636 22.6869 101.396C22.6869 102.156 22.5469 102.866 22.2669 103.526C21.9869 104.176 21.5919 104.751 21.0819 105.251C20.5819 105.741 19.9919 106.126 19.3119 106.406C18.6419 106.676 17.9169 106.811 17.1369 106.811ZM17.1369 104.816C17.6169 104.816 18.0569 104.731 18.4569 104.561C18.8569 104.381 19.2069 104.141 19.5069 103.841C19.8069 103.531 20.0419 103.166 20.2119 102.746C20.3819 102.326 20.4669 101.876 20.4669 101.396C20.4669 100.906 20.3819 100.456 20.2119 100.046C20.0419 99.6264 19.8069 99.2664 19.5069 98.9664C19.2069 98.6564 18.8569 98.4164 18.4569 98.2464C18.0569 98.0664 17.6169 97.9764 17.1369 97.9764C16.6669 97.9764 16.2319 98.0664 15.8319 98.2464C15.4319 98.4164 15.0819 98.6564 14.7819 98.9664C14.4819 99.2664 14.2469 99.6264 14.0769 100.046C13.9069 100.456 13.8219 100.901 13.8219 101.381C13.8219 101.871 13.9069 102.326 14.0769 102.746C14.2469 103.166 14.4819 103.531 14.7819 103.841C15.0819 104.141 15.4319 104.381 15.8319 104.561C16.2319 104.731 16.6669 104.816 17.1369 104.816ZM24.194 106.646V96.1464H26.264L31.484 102.926V96.1464H33.524V106.646H31.604L26.249 99.6264V106.646H24.194ZM38.2944 106.646V98.0664H34.7544V96.1464H43.9944V98.0664H40.4694V106.646H38.2944ZM45.2145 106.646V96.1464H50.3445C51.0545 96.1464 51.6795 96.2864 52.2195 96.5664C52.7695 96.8364 53.1945 97.2164 53.4945 97.7064C53.8045 98.1964 53.9595 98.7614 53.9595 99.4014C53.9595 100.071 53.7745 100.661 53.4045 101.171C53.0345 101.681 52.5395 102.061 51.9195 102.311L54.2445 106.646H51.8145L49.7595 102.626H47.3895V106.646H45.2145ZM47.3895 100.841H50.1495C50.6395 100.841 51.0295 100.711 51.3195 100.451C51.6195 100.191 51.7695 99.8514 51.7695 99.4314C51.7695 99.0114 51.6195 98.6714 51.3195 98.4114C51.0295 98.1514 50.6395 98.0214 50.1495 98.0214H47.3895V100.841ZM60.5402 106.811C59.7602 106.811 59.0352 106.676 58.3652 106.406C57.6952 106.126 57.1052 105.741 56.5952 105.251C56.0952 104.751 55.7002 104.176 55.4102 103.526C55.1302 102.866 54.9902 102.156 54.9902 101.396C54.9902 100.636 55.1302 99.9314 55.4102 99.2814C55.7002 98.6214 56.0952 98.0464 56.5952 97.5564C57.1052 97.0564 57.6952 96.6714 58.3652 96.4014C59.0352 96.1214 59.7602 95.9814 60.5402 95.9814C61.3202 95.9814 62.0452 96.1214 62.7152 96.4014C63.3952 96.6714 63.9852 97.0564 64.4852 97.5564C64.9952 98.0464 65.3902 98.6214 65.6702 99.2814C65.9502 99.9314 66.0902 100.636 66.0902 101.396C66.0902 102.156 65.9502 102.866 65.6702 103.526C65.3902 104.176 64.9952 104.751 64.4852 105.251C63.9852 105.741 63.3952 106.126 62.7152 106.406C62.0452 106.676 61.3202 106.811 60.5402 106.811ZM60.5402 104.816C61.0202 104.816 61.4602 104.731 61.8602 104.561C62.2602 104.381 62.6102 104.141 62.9102 103.841C63.2102 103.531 63.4452 103.166 63.6152 102.746C63.7852 102.326 63.8702 101.876 63.8702 101.396C63.8702 100.906 63.7852 100.456 63.6152 100.046C63.4452 99.6264 63.2102 99.2664 62.9102 98.9664C62.6102 98.6564 62.2602 98.4164 61.8602 98.2464C61.4602 98.0664 61.0202 97.9764 60.5402 97.9764C60.0702 97.9764 59.6352 98.0664 59.2352 98.2464C58.8352 98.4164 58.4852 98.6564 58.1852 98.9664C57.8852 99.2664 57.6502 99.6264 57.4802 100.046C57.3102 100.456 57.2252 100.901 57.2252 101.381C57.2252 101.871 57.3102 102.326 57.4802 102.746C57.6502 103.166 57.8852 103.531 58.1852 103.841C58.4852 104.141 58.8352 104.381 59.2352 104.561C59.6352 104.731 60.0702 104.816 60.5402 104.816ZM67.5973 106.646V96.1464H69.7723V104.726H75.5173V106.646H67.5973ZM79.0289 106.646L83.3489 96.1464H85.8539L90.1289 106.646H87.7739L86.7089 103.886H82.3739L81.2939 106.646H79.0289ZM83.0489 102.146H86.0489L84.5489 98.2764L83.0489 102.146ZM91.0202 106.646V96.1464H93.0902L98.3102 102.926V96.1464H100.35V106.646H98.4302L93.0752 99.6264V106.646H91.0202ZM104.431 104.711H106.261C106.731 104.711 107.166 104.631 107.566 104.471C107.976 104.301 108.331 104.066 108.631 103.766C108.941 103.466 109.176 103.116 109.336 102.716C109.506 102.316 109.591 101.881 109.591 101.411C109.591 100.941 109.506 100.506 109.336 100.106C109.166 99.6964 108.931 99.3414 108.631 99.0414C108.331 98.7414 107.976 98.5064 107.566 98.3364C107.166 98.1664 106.731 98.0814 106.261 98.0814H104.431V104.711ZM102.256 106.646V96.1464H106.291C107.081 96.1464 107.811 96.2814 108.481 96.5514C109.151 96.8114 109.736 97.1814 110.236 97.6614C110.736 98.1414 111.126 98.7014 111.406 99.3414C111.696 99.9814 111.841 100.671 111.841 101.411C111.841 102.161 111.701 102.851 111.421 103.481C111.141 104.111 110.746 104.666 110.236 105.146C109.736 105.616 109.151 105.986 108.481 106.256C107.811 106.516 107.081 106.646 106.291 106.646H102.256ZM115.342 106.646L119.662 96.1464H122.167L126.442 106.646H124.087L123.022 103.886H118.687L117.607 106.646H115.342ZM119.362 102.146H122.362L120.862 98.2764L119.362 102.146ZM131.923 106.796C131.143 106.796 130.413 106.661 129.733 106.391C129.053 106.111 128.458 105.726 127.948 105.236C127.448 104.746 127.053 104.176 126.763 103.526C126.483 102.866 126.343 102.156 126.343 101.396C126.343 100.626 126.483 99.9164 126.763 99.2664C127.053 98.6064 127.453 98.0314 127.963 97.5414C128.473 97.0514 129.063 96.6714 129.733 96.4014C130.413 96.1214 131.143 95.9814 131.923 95.9814C132.503 95.9814 133.063 96.0614 133.603 96.2214C134.143 96.3814 134.643 96.6064 135.103 96.8964C135.573 97.1864 135.973 97.5364 136.303 97.9464L134.833 99.4014C134.453 98.9314 134.013 98.5764 133.513 98.3364C133.023 98.0964 132.493 97.9764 131.923 97.9764C131.453 97.9764 131.013 98.0664 130.603 98.2464C130.193 98.4164 129.838 98.6564 129.538 98.9664C129.238 99.2664 129.003 99.6264 128.833 100.046C128.663 100.456 128.578 100.906 128.578 101.396C128.578 101.876 128.663 102.326 128.833 102.746C129.003 103.156 129.243 103.516 129.553 103.826C129.863 104.126 130.223 104.361 130.633 104.531C131.053 104.701 131.508 104.786 131.998 104.786C132.548 104.786 133.063 104.671 133.543 104.441C134.023 104.211 134.448 103.881 134.818 103.451L136.243 104.861C135.913 105.261 135.518 105.606 135.058 105.896C134.598 106.186 134.098 106.411 133.558 106.571C133.028 106.721 132.483 106.796 131.923 106.796ZM142.47 106.796C141.69 106.796 140.96 106.661 140.28 106.391C139.6 106.111 139.005 105.726 138.495 105.236C137.995 104.746 137.6 104.176 137.31 103.526C137.03 102.866 136.89 102.156 136.89 101.396C136.89 100.626 137.03 99.9164 137.31 99.2664C137.6 98.6064 138 98.0314 138.51 97.5414C139.02 97.0514 139.61 96.6714 140.28 96.4014C140.96 96.1214 141.69 95.9814 142.47 95.9814C143.05 95.9814 143.61 96.0614 144.15 96.2214C144.69 96.3814 145.19 96.6064 145.65 96.8964C146.12 97.1864 146.52 97.5364 146.85 97.9464L145.38 99.4014C145 98.9314 144.56 98.5764 144.06 98.3364C143.57 98.0964 143.04 97.9764 142.47 97.9764C142 97.9764 141.56 98.0664 141.15 98.2464C140.74 98.4164 140.385 98.6564 140.085 98.9664C139.785 99.2664 139.55 99.6264 139.38 100.046C139.21 100.456 139.125 100.906 139.125 101.396C139.125 101.876 139.21 102.326 139.38 102.746C139.55 103.156 139.79 103.516 140.1 103.826C140.41 104.126 140.77 104.361 141.18 104.531C141.6 104.701 142.055 104.786 142.545 104.786C143.095 104.786 143.61 104.671 144.09 104.441C144.57 104.211 144.995 103.881 145.365 103.451L146.79 104.861C146.46 105.261 146.065 105.606 145.605 105.896C145.145 106.186 144.645 106.411 144.105 106.571C143.575 106.721 143.03 106.796 142.47 106.796ZM152.986 106.811C152.206 106.811 151.481 106.676 150.811 106.406C150.141 106.126 149.551 105.741 149.041 105.251C148.541 104.751 148.146 104.176 147.856 103.526C147.576 102.866 147.436 102.156 147.436 101.396C147.436 100.636 147.576 99.9314 147.856 99.2814C148.146 98.6214 148.541 98.0464 149.041 97.5564C149.551 97.0564 150.141 96.6714 150.811 96.4014C151.481 96.1214 152.206 95.9814 152.986 95.9814C153.766 95.9814 154.491 96.1214 155.161 96.4014C155.841 96.6714 156.431 97.0564 156.931 97.5564C157.441 98.0464 157.836 98.6214 158.116 99.2814C158.396 99.9314 158.536 100.636 158.536 101.396C158.536 102.156 158.396 102.866 158.116 103.526C157.836 104.176 157.441 104.751 156.931 105.251C156.431 105.741 155.841 106.126 155.161 106.406C154.491 106.676 153.766 106.811 152.986 106.811ZM152.986 104.816C153.466 104.816 153.906 104.731 154.306 104.561C154.706 104.381 155.056 104.141 155.356 103.841C155.656 103.531 155.891 103.166 156.061 102.746C156.231 102.326 156.316 101.876 156.316 101.396C156.316 100.906 156.231 100.456 156.061 100.046C155.891 99.6264 155.656 99.2664 155.356 98.9664C155.056 98.6564 154.706 98.4164 154.306 98.2464C153.906 98.0664 153.466 97.9764 152.986 97.9764C152.516 97.9764 152.081 98.0664 151.681 98.2464C151.281 98.4164 150.931 98.6564 150.631 98.9664C150.331 99.2664 150.096 99.6264 149.926 100.046C149.756 100.456 149.671 100.901 149.671 101.381C149.671 101.871 149.756 102.326 149.926 102.746C150.096 103.166 150.331 103.531 150.631 103.841C150.931 104.141 151.281 104.381 151.681 104.561C152.081 104.731 152.516 104.816 152.986 104.816ZM164.529 106.796C163.579 106.796 162.754 106.606 162.054 106.226C161.364 105.846 160.829 105.306 160.449 104.606C160.069 103.896 159.879 103.066 159.879 102.116V96.1464H162.054V102.116C162.054 102.656 162.154 103.131 162.354 103.541C162.564 103.941 162.854 104.251 163.224 104.471C163.604 104.681 164.044 104.786 164.544 104.786C165.044 104.786 165.479 104.681 165.849 104.471C166.219 104.251 166.504 103.941 166.704 103.541C166.914 103.131 167.019 102.656 167.019 102.116V96.1464H169.179V102.116C169.179 103.056 168.989 103.881 168.609 104.591C168.229 105.291 167.689 105.836 166.989 106.226C166.299 106.606 165.479 106.796 164.529 106.796ZM170.913 106.646V96.1464H172.983L178.203 102.926V96.1464H180.243V106.646H178.323L172.968 99.6264V106.646H170.913ZM185.013 106.646V98.0664H181.473V96.1464H190.713V98.0664H187.188V106.646H185.013ZM191.933 106.646V96.1464H194.108V106.646H191.933ZM196.02 106.646V96.1464H198.09L203.31 102.926V96.1464H205.35V106.646H203.43L198.075 99.6264V106.646H196.02ZM212.416 106.811C211.636 106.811 210.911 106.676 210.241 106.406C209.571 106.126 208.981 105.741 208.471 105.251C207.961 104.751 207.561 104.176 207.271 103.526C206.991 102.866 206.851 102.156 206.851 101.396C206.851 100.636 206.991 99.9314 207.271 99.2814C207.561 98.6214 207.956 98.0464 208.456 97.5564C208.956 97.0564 209.541 96.6714 210.211 96.4014C210.891 96.1214 211.616 95.9814 212.386 95.9814C213.256 95.9814 214.076 96.1564 214.846 96.5064C215.616 96.8464 216.251 97.3264 216.751 97.9464L215.236 99.3414C214.876 98.8914 214.451 98.5514 213.961 98.3214C213.471 98.0914 212.946 97.9764 212.386 97.9764C211.916 97.9764 211.481 98.0664 211.081 98.2464C210.681 98.4164 210.331 98.6564 210.031 98.9664C209.731 99.2664 209.496 99.6264 209.326 100.046C209.166 100.456 209.086 100.906 209.086 101.396C209.086 101.886 209.171 102.341 209.341 102.761C209.511 103.181 209.746 103.546 210.046 103.856C210.356 104.156 210.711 104.396 211.111 104.576C211.521 104.746 211.966 104.831 212.446 104.831C212.946 104.831 213.396 104.741 213.796 104.561C214.196 104.371 214.531 104.111 214.801 103.781C215.081 103.441 215.266 103.061 215.356 102.641H212.251V100.751H217.681V101.411C217.681 102.191 217.546 102.911 217.276 103.571C217.016 104.221 216.651 104.791 216.181 105.281C215.711 105.761 215.156 106.136 214.516 106.406C213.876 106.676 213.176 106.811 212.416 106.811ZM227.327 106.811C226.547 106.811 225.822 106.676 225.152 106.406C224.482 106.126 223.892 105.741 223.382 105.251C222.882 104.751 222.487 104.176 222.197 103.526C221.917 102.866 221.777 102.156 221.777 101.396C221.777 100.636 221.917 99.9314 222.197 99.2814C222.487 98.6214 222.882 98.0464 223.382 97.5564C223.892 97.0564 224.482 96.6714 225.152 96.4014C225.822 96.1214 226.547 95.9814 227.327 95.9814C228.107 95.9814 228.832 96.1214 229.502 96.4014C230.182 96.6714 230.772 97.0564 231.272 97.5564C231.782 98.0464 232.177 98.6214 232.457 99.2814C232.737 99.9314 232.877 100.636 232.877 101.396C232.877 102.156 232.737 102.866 232.457 103.526C232.177 104.176 231.782 104.751 231.272 105.251C230.772 105.741 230.182 106.126 229.502 106.406C228.832 106.676 228.107 106.811 227.327 106.811ZM227.327 104.816C227.807 104.816 228.247 104.731 228.647 104.561C229.047 104.381 229.397 104.141 229.697 103.841C229.997 103.531 230.232 103.166 230.402 102.746C230.572 102.326 230.657 101.876 230.657 101.396C230.657 100.906 230.572 100.456 230.402 100.046C230.232 99.6264 229.997 99.2664 229.697 98.9664C229.397 98.6564 229.047 98.4164 228.647 98.2464C228.247 98.0664 227.807 97.9764 227.327 97.9764C226.857 97.9764 226.422 98.0664 226.022 98.2464C225.622 98.4164 225.272 98.6564 224.972 98.9664C224.672 99.2664 224.437 99.6264 224.267 100.046C224.097 100.456 224.012 100.901 224.012 101.381C224.012 101.871 224.097 102.326 224.267 102.746C224.437 103.166 224.672 103.531 224.972 103.841C225.272 104.141 225.622 104.381 226.022 104.561C226.422 104.731 226.857 104.816 227.327 104.816ZM234.384 106.646V96.1464H242.499V98.0364H236.559V100.511H240.504V102.341H236.559V106.646H234.384ZM243.965 106.646V96.1464H252.08V98.0364H246.14V100.511H250.085V102.341H246.14V106.646H243.965ZM253.545 106.646V96.1464H255.72V106.646H253.545ZM262.807 106.796C262.027 106.796 261.297 106.661 260.617 106.391C259.937 106.111 259.342 105.726 258.832 105.236C258.332 104.746 257.937 104.176 257.647 103.526C257.367 102.866 257.227 102.156 257.227 101.396C257.227 100.626 257.367 99.9164 257.647 99.2664C257.937 98.6064 258.337 98.0314 258.847 97.5414C259.357 97.0514 259.947 96.6714 260.617 96.4014C261.297 96.1214 262.027 95.9814 262.807 95.9814C263.387 95.9814 263.947 96.0614 264.487 96.2214C265.027 96.3814 265.527 96.6064 265.987 96.8964C266.457 97.1864 266.857 97.5364 267.187 97.9464L265.717 99.4014C265.337 98.9314 264.897 98.5764 264.397 98.3364C263.907 98.0964 263.377 97.9764 262.807 97.9764C262.337 97.9764 261.897 98.0664 261.487 98.2464C261.077 98.4164 260.722 98.6564 260.422 98.9664C260.122 99.2664 259.887 99.6264 259.717 100.046C259.547 100.456 259.462 100.906 259.462 101.396C259.462 101.876 259.547 102.326 259.717 102.746C259.887 103.156 260.127 103.516 260.437 103.826C260.747 104.126 261.107 104.361 261.517 104.531C261.937 104.701 262.392 104.786 262.882 104.786C263.432 104.786 263.947 104.671 264.427 104.441C264.907 104.211 265.332 103.881 265.702 103.451L267.127 104.861C266.797 105.261 266.402 105.606 265.942 105.896C265.482 106.186 264.982 106.411 264.442 106.571C263.912 106.721 263.367 106.796 262.807 106.796ZM268.398 106.646V96.1464H276.468V98.0364H270.573V100.436H274.458V102.266H270.573V104.756H276.528V106.646H268.398ZM284.834 106.796C283.984 106.796 283.154 106.641 282.344 106.331C281.534 106.011 280.814 105.561 280.184 104.981L281.429 103.421C282.039 103.961 282.624 104.351 283.184 104.591C283.754 104.831 284.354 104.951 284.984 104.951C285.424 104.951 285.804 104.901 286.124 104.801C286.444 104.691 286.689 104.536 286.859 104.336C287.039 104.136 287.129 103.901 287.129 103.631C287.129 103.271 286.999 102.996 286.739 102.806C286.479 102.606 286.034 102.451 285.404 102.341L283.319 101.981C282.429 101.831 281.749 101.516 281.279 101.036C280.819 100.556 280.589 99.9364 280.589 99.1764C280.589 98.5264 280.754 97.9614 281.084 97.4814C281.424 97.0014 281.899 96.6364 282.509 96.3864C283.129 96.1264 283.864 95.9964 284.714 95.9964C285.484 95.9964 286.249 96.1264 287.009 96.3864C287.779 96.6464 288.459 97.0064 289.049 97.4664L287.879 99.0864C286.779 98.2464 285.674 97.8264 284.564 97.8264C284.174 97.8264 283.834 97.8764 283.544 97.9764C283.254 98.0764 283.029 98.2164 282.869 98.3964C282.719 98.5664 282.644 98.7714 282.644 99.0114C282.644 99.3314 282.759 99.5814 282.989 99.7614C283.219 99.9314 283.604 100.061 284.144 100.151L286.124 100.481C287.174 100.651 287.959 100.986 288.479 101.486C288.999 101.976 289.259 102.626 289.259 103.436C289.259 104.116 289.079 104.711 288.719 105.221C288.359 105.721 287.844 106.111 287.174 106.391C286.514 106.661 285.734 106.796 284.834 106.796ZM293.421 106.646V102.626L289.131 96.1464H291.636L294.576 100.706L297.531 96.1464H299.901L295.596 102.641V106.646H293.421ZM304.301 106.796C303.451 106.796 302.621 106.641 301.811 106.331C301.001 106.011 300.281 105.561 299.651 104.981L300.896 103.421C301.506 103.961 302.091 104.351 302.651 104.591C303.221 104.831 303.821 104.951 304.451 104.951C304.891 104.951 305.271 104.901 305.591 104.801C305.911 104.691 306.156 104.536 306.326 104.336C306.506 104.136 306.596 103.901 306.596 103.631C306.596 103.271 306.466 102.996 306.206 102.806C305.946 102.606 305.501 102.451 304.871 102.341L302.786 101.981C301.896 101.831 301.216 101.516 300.746 101.036C300.286 100.556 300.056 99.9364 300.056 99.1764C300.056 98.5264 300.221 97.9614 300.551 97.4814C300.891 97.0014 301.366 96.6364 301.976 96.3864C302.596 96.1264 303.331 95.9964 304.181 95.9964C304.951 95.9964 305.716 96.1264 306.476 96.3864C307.246 96.6464 307.926 97.0064 308.516 97.4664L307.346 99.0864C306.246 98.2464 305.141 97.8264 304.031 97.8264C303.641 97.8264 303.301 97.8764 303.011 97.9764C302.721 98.0764 302.496 98.2164 302.336 98.3964C302.186 98.5664 302.111 98.7714 302.111 99.0114C302.111 99.3314 302.226 99.5814 302.456 99.7614C302.686 99.9314 303.071 100.061 303.611 100.151L305.591 100.481C306.641 100.651 307.426 100.986 307.946 101.486C308.466 101.976 308.726 102.626 308.726 103.436C308.726 104.116 308.546 104.711 308.186 105.221C307.826 105.721 307.311 106.111 306.641 106.391C305.981 106.661 305.201 106.796 304.301 106.796ZM312.66 106.646V98.0664H309.12V96.1464H318.36V98.0664H314.835V106.646H312.66ZM319.58 106.646V96.1464H327.65V98.0364H321.755V100.436H325.64V102.266H321.755V104.756H327.71V106.646H319.58ZM329.248 106.646V96.1464H332.038L334.918 101.816L337.798 96.1464H340.588V106.646H338.533V98.9214L334.888 105.896L331.258 98.8914V106.646H329.248Z" fill="white"/>
<defs>
<linearGradient id="paint0_linear_12_36" x1="171.15" y1="-16.1925" x2="171.15" y2="96.6945" gradientUnits="userSpaceOnUse">
<stop stop-color="#FD0D0D"/>
<stop offset="1" stop-color="#FFC700"/>
</linearGradient>
</defs>
</svg>
