<svg width="121" height="118" viewBox="0 0 121 118" fill="none" xmlns="http://www.w3.org/2000/svg">
<g filter="url(#filter0_i_12_32)">
<path d="M70.4821 17.7418L60.6073 0.353622L50.7326 17.7418H55.8846L56.0993 25.0406C48.2718 26.6677 44.8265 28.1875 39.9991 31.91L33.3444 26.7579L37.2084 22.8939L17.8882 17.7418L23.0403 37.062L26.9043 33.198L33.3444 38.35C29.1941 44.1488 27.7781 47.7554 26.475 54.6649H17.8882V49.2982L0.5 59.3876L17.8882 69.2624V63.8957H26.475C27.7948 71.2057 29.358 74.7583 33.3444 80.2105L26.9043 87.2946L23.0403 83.4305L17.8882 102.751L37.2084 97.5987L33.3444 93.7347L39.7844 86.8653C45.3489 91.0012 48.9937 92.3744 56.0993 93.7347V99.7454H50.7326L60.822 117.134L70.6968 99.7454H65.3301V93.7347C72.4951 92.4979 76.0916 90.9442 81.8596 86.8653L87.441 93.3053L83.7916 96.9547L102.897 102.321L97.7451 83.0012L94.0957 86.8653L88.2996 80.4252C92.5409 74.3001 94.1625 70.7062 95.1691 63.8957H103.112V69.2624L120.5 59.3876L103.112 49.2982V54.6649H95.1691C93.8043 47.4197 92.243 43.8855 88.2996 38.35L94.0957 33.198L97.9597 36.8474L103.112 17.7418L83.7916 22.8939L87.6556 26.5432L81.8596 31.6953C75.5005 27.5458 71.8852 26.0421 65.3301 25.0406L65.1154 17.7418H70.4821Z" fill="url(#paint0_radial_12_32)"/>
<path d="M70.4821 17.7418L60.6073 0.353622L50.7326 17.7418H55.8846L56.0993 25.0406C48.2718 26.6677 44.8265 28.1875 39.9991 31.91L33.3444 26.7579L37.2084 22.8939L17.8882 17.7418L23.0403 37.062L26.9043 33.198L33.3444 38.35C29.1941 44.1488 27.7781 47.7554 26.475 54.6649H17.8882V49.2982L0.5 59.3876L17.8882 69.2624V63.8957H26.475C27.7948 71.2057 29.358 74.7583 33.3444 80.2105L26.9043 87.2946L23.0403 83.4305L17.8882 102.751L37.2084 97.5987L33.3444 93.7347L39.7844 86.8653C45.3489 91.0012 48.9937 92.3744 56.0993 93.7347V99.7454H50.7326L60.822 117.134L70.6968 99.7454H65.3301V93.7347C72.4951 92.4979 76.0916 90.9442 81.8596 86.8653L87.441 93.3053L83.7916 96.9547L102.897 102.321L97.7451 83.0012L94.0957 86.8653L88.2996 80.4252C92.5409 74.3001 94.1625 70.7062 95.1691 63.8957H103.112V69.2624L120.5 59.3876L103.112 49.2982V54.6649H95.1691C93.8043 47.4197 92.243 43.8855 88.2996 38.35L94.0957 33.198L97.9597 36.8474L103.112 17.7418L83.7916 22.8939L87.6556 26.5432L81.8596 31.6953C75.5005 27.5458 71.8852 26.0421 65.3301 25.0406L65.1154 17.7418H70.4821Z" stroke="black"/>
</g>
<g filter="url(#filter1_d_12_32)">
<path fill-rule="evenodd" clip-rule="evenodd" d="M60.6073 45.1687C41.7342 45.1687 41.7342 72.9818 60.6073 72.9818C79.4805 72.9818 79.4805 45.1687 60.6073 45.1687ZM68.5539 59.0752C68.5539 55.1019 64.5806 51.1286 60.6073 51.1286C59.766 51.1286 58.9248 51.3067 58.1212 51.6253L60.1107 59.0752L53.6307 55.5986C53.0201 56.6854 52.6607 57.8803 52.6607 59.0752C52.6607 63.0485 56.634 67.0218 60.6073 67.0218C64.5806 67.0218 68.5539 63.0485 68.5539 59.0752Z" fill="white"/>
</g>
<path fill-rule="evenodd" clip-rule="evenodd" d="M41.1759 47.3625C46.1946 42.783 53.1733 38.5647 60.6073 38.5647C68.0413 38.5647 75.0201 42.783 80.0387 47.3625C82.5566 49.66 84.6087 52.073 86.0054 54.1443C86.7032 55.1791 87.2458 56.1409 87.6002 56.9703C87.9258 57.7322 88.1324 58.4715 88.0754 59.0752C88.1324 59.6789 87.9258 60.4182 87.6002 61.1801C87.2458 62.0095 86.7032 62.9714 86.0054 64.0061C84.6087 66.0774 82.5566 68.4904 80.0387 70.7879C75.0201 75.3674 68.0413 79.5857 60.6073 79.5857C53.1733 79.5857 46.1946 75.3674 41.1759 70.7879C38.6581 68.4904 36.606 66.0774 35.2092 64.0061C34.5115 62.9714 33.9688 62.0095 33.6144 61.1801C33.2889 60.4182 33.0822 59.6789 33.1393 59.0752C33.0822 58.4715 33.2889 57.7322 33.6144 56.9703C33.9688 56.1409 34.5115 55.1791 35.2092 54.1443C36.606 52.073 38.6581 49.66 41.1759 47.3625ZM34.7988 57.4765C34.4736 58.2376 34.3894 58.7345 34.4251 58.9841L34.4381 59.0752L34.4251 59.1663C34.3894 59.4159 34.4736 59.9128 34.7988 60.674C35.1118 61.4063 35.6091 62.2953 36.2771 63.286C37.612 65.2656 39.5953 67.6019 42.0441 69.8365C46.9587 74.321 53.6381 78.2977 60.6073 78.2977C67.5765 78.2977 74.256 74.321 79.1706 69.8365C81.6194 67.6019 83.6026 65.2656 84.9375 63.286C85.6056 62.2953 86.1029 61.4063 86.4158 60.674C86.7411 59.9128 86.8252 59.4159 86.7895 59.1663L86.7765 59.0752L86.7895 58.9841C86.8252 58.7345 86.7411 58.2376 86.4158 57.4765C86.1029 56.7441 85.6056 55.8551 84.9375 54.8644C83.6026 52.8848 81.6194 50.5485 79.1706 48.3139C74.256 43.8294 67.5765 39.8527 60.6073 39.8527C53.6381 39.8527 46.9587 43.8294 42.0441 48.3139C39.5953 50.5485 37.612 52.8848 36.2771 54.8644C35.6091 55.8551 35.1118 56.7441 34.7988 57.4765ZM49.5136 49.0824C52.0021 46.3319 55.7182 44.5247 60.6073 44.5247C65.4964 44.5247 69.2125 46.3319 71.701 49.0824C74.1796 51.8219 75.4062 55.4582 75.4062 59.0752C75.4062 62.6922 74.1796 66.3285 71.701 69.068C69.2125 71.8185 65.4964 73.6258 60.6073 73.6258C55.7182 73.6258 52.0021 71.8185 49.5136 69.068C47.035 66.3285 45.8084 62.6922 45.8084 59.0752C45.8084 55.4582 47.035 51.8219 49.5136 49.0824ZM50.4687 68.2039C52.6985 70.6684 56.0599 72.3377 60.6073 72.3377C65.1548 72.3377 68.5162 70.6684 70.7459 68.2039C72.9856 65.7284 74.1182 62.4115 74.1182 59.0752C74.1182 55.7389 72.9856 52.422 70.7459 49.9465C68.5162 47.4821 65.1548 45.8127 60.6073 45.8127C56.0599 45.8127 52.6985 47.4821 50.4687 49.9465C48.229 52.422 47.0965 55.7389 47.0965 59.0752C47.0965 62.4115 48.229 65.7284 50.4687 68.2039ZM58.8974 52.0356C59.4636 51.864 60.0385 51.7726 60.6073 51.7726C62.3845 51.7726 64.2156 52.6677 65.6152 54.0673C67.0148 55.4669 67.9099 57.298 67.9099 59.0752C67.9099 60.8524 67.0148 62.6835 65.6152 64.0831C64.2156 65.4827 62.3845 66.3778 60.6073 66.3778C58.8301 66.3778 56.999 65.4827 55.5994 64.0831C54.1998 62.6835 53.3047 60.8524 53.3047 59.0752C53.3047 58.2048 53.5188 57.3204 53.9054 56.4768L61.1165 60.3457L58.8974 52.0356ZM57.8839 51.0266C58.7535 50.6819 59.6751 50.4846 60.6073 50.4846C62.8034 50.4846 64.9456 51.5762 66.526 53.1565C68.1064 54.7369 69.1979 56.8791 69.1979 59.0752C69.1979 61.2713 68.1064 63.4135 66.526 64.9939C64.9456 66.5742 62.8034 67.6658 60.6073 67.6658C58.4112 67.6658 56.269 66.5742 54.6887 64.9939C53.1083 63.4135 52.0167 61.2713 52.0167 59.0752C52.0167 57.7517 52.4141 56.4491 53.0692 55.2831L53.3786 54.7325L59.1048 57.8047L57.3512 51.2378L57.8839 51.0266Z" fill="white"/>
<defs>
<filter id="filter0_i_12_32" x="0.5" y="0.353622" width="120" height="120.78" filterUnits="userSpaceOnUse" color-interpolation-filters="sRGB">
<feFlood flood-opacity="0" result="BackgroundImageFix"/>
<feBlend mode="normal" in="SourceGraphic" in2="BackgroundImageFix" result="shape"/>
<feColorMatrix in="SourceAlpha" type="matrix" values="0 0 0 0 0 0 0 0 0 0 0 0 0 0 0 0 0 0 127 0" result="hardAlpha"/>
<feOffset dy="4"/>
<feGaussianBlur stdDeviation="2"/>
<feComposite in2="hardAlpha" operator="arithmetic" k2="-1" k3="1"/>
<feColorMatrix type="matrix" values="0 0 0 0 0 0 0 0 0 0 0 0 0 0 0 0 0 0 0.25 0"/>
<feBlend mode="normal" in2="shape" result="effect1_innerShadow_12_32"/>
</filter>
<filter id="filter1_d_12_32" x="42.4525" y="45.1687" width="36.3098" height="35.8131" filterUnits="userSpaceOnUse" color-interpolation-filters="sRGB">
<feFlood flood-opacity="0" result="BackgroundImageFix"/>
<feColorMatrix in="SourceAlpha" type="matrix" values="0 0 0 0 0 0 0 0 0 0 0 0 0 0 0 0 0 0 127 0" result="hardAlpha"/>
<feOffset dy="4"/>
<feGaussianBlur stdDeviation="2"/>
<feComposite in2="hardAlpha" operator="out"/>
<feColorMatrix type="matrix" values="0 0 0 0 0 0 0 0 0 0 0 0 0 0 0 0 0 0 0.25 0"/>
<feBlend mode="normal" in2="BackgroundImageFix" result="effect1_dropShadow_12_32"/>
<feBlend mode="normal" in="SourceGraphic" in2="effect1_dropShadow_12_32" result="shape"/>
</filter>
<radialGradient id="paint0_radial_12_32" cx="0" cy="0" r="1" gradientUnits="userSpaceOnUse" gradientTransform="translate(60.5 58.7436) rotate(90) scale(58.39 60)">
<stop offset="0.260417" stop-color="#FD0D0D"/>
<stop offset="1" stop-color="#FFC700"/>
</radialGradient>
</defs>
</svg>
