<svg width="121" height="118" viewBox="0 0 121 118" fill="none" xmlns="http://www.w3.org/2000/svg">
<g filter="url(#filter0_i_12_32)">
<path d="M70.4821 18.2418L60.6073 0.853622L50.7326 18.2418H55.8846L56.0993 25.5406C48.2718 27.1677 44.8265 28.6875 39.9991 32.41L33.3444 27.2579L37.2084 23.3939L17.8882 18.2418L23.0403 37.562L26.9043 33.698L33.3444 38.85C29.1941 44.6488 27.7781 48.2554 26.475 55.1649H17.8882V49.7982L0.5 59.8876L17.8882 69.7624V64.3957H26.475C27.7948 71.7057 29.358 75.2583 33.3444 80.7105L26.9043 87.7946L23.0403 83.9305L17.8882 103.251L37.2084 98.0987L33.3444 94.2347L39.7844 87.3653C45.3489 91.5012 48.9937 92.8744 56.0993 94.2347V100.245H50.7326L60.822 117.634L70.6968 100.245H65.3301V94.2347C72.4951 92.9979 76.0916 91.4442 81.8596 87.3653L87.441 93.8053L83.7916 97.4547L102.897 102.821L97.7451 83.5012L94.0957 87.3653L88.2996 80.9252C92.5409 74.8001 94.1625 71.2062 95.1691 64.3957H103.112V69.7624L120.5 59.8876L103.112 49.7982V55.1649H95.1691C93.8043 47.9197 92.243 44.3855 88.2996 38.85L94.0957 33.698L97.9597 37.3474L103.112 18.2418L83.7916 23.3939L87.6556 27.0432L81.8596 32.1953C75.5005 28.0458 71.8852 26.5421 65.3301 25.5406L65.1154 18.2418H70.4821Z" fill="url(#paint0_radial_12_32)"/>
<path d="M70.4821 18.2418L60.6073 0.853622L50.7326 18.2418H55.8846L56.0993 25.5406C48.2718 27.1677 44.8265 28.6875 39.9991 32.41L33.3444 27.2579L37.2084 23.3939L17.8882 18.2418L23.0403 37.562L26.9043 33.698L33.3444 38.85C29.1941 44.6488 27.7781 48.2554 26.475 55.1649H17.8882V49.7982L0.5 59.8876L17.8882 69.7624V64.3957H26.475C27.7948 71.7057 29.358 75.2583 33.3444 80.7105L26.9043 87.7946L23.0403 83.9305L17.8882 103.251L37.2084 98.0987L33.3444 94.2347L39.7844 87.3653C45.3489 91.5012 48.9937 92.8744 56.0993 94.2347V100.245H50.7326L60.822 117.634L70.6968 100.245H65.3301V94.2347C72.4951 92.9979 76.0916 91.4442 81.8596 87.3653L87.441 93.8053L83.7916 97.4547L102.897 102.821L97.7451 83.5012L94.0957 87.3653L88.2996 80.9252C92.5409 74.8001 94.1625 71.2062 95.1691 64.3957H103.112V69.7624L120.5 59.8876L103.112 49.7982V55.1649H95.1691C93.8043 47.9197 92.243 44.3855 88.2996 38.85L94.0957 33.698L97.9597 37.3474L103.112 18.2418L83.7916 23.3939L87.6556 27.0432L81.8596 32.1953C75.5005 28.0458 71.8852 26.5421 65.3301 25.5406L65.1154 18.2418H70.4821Z" stroke="black"/>
</g>
<g filter="url(#filter1_d_12_32)">
<path fill-rule="evenodd" clip-rule="evenodd" d="M60.6073 45.6687C41.7342 45.6687 41.7342 73.4818 60.6073 73.4818C79.4805 73.4818 79.4805 45.6687 60.6073 45.6687ZM68.5539 59.5752C68.5539 55.6019 64.5806 51.6286 60.6073 51.6286C59.766 51.6286 58.9248 51.8067 58.1212 52.1253L60.1107 59.5752L53.6307 56.0986C53.0201 57.1854 52.6607 58.3803 52.6607 59.5752C52.6607 63.5485 56.634 67.5218 60.6073 67.5218C64.5806 67.5218 68.5539 63.5485 68.5539 59.5752Z" fill="white"/>
</g>
<path fill-rule="evenodd" clip-rule="evenodd" d="M41.1759 47.8625C46.1946 43.283 53.1733 39.0647 60.6073 39.0647C68.0413 39.0647 75.0201 43.283 80.0387 47.8625C82.5566 50.16 84.6087 52.573 86.0054 54.6443C86.7032 55.6791 87.2458 56.6409 87.6002 57.4703C87.9258 58.2322 88.1324 58.9715 88.0754 59.5752C88.1324 60.1789 87.9258 60.9182 87.6002 61.6801C87.2458 62.5095 86.7032 63.4714 86.0054 64.5061C84.6087 66.5774 82.5566 68.9904 80.0387 71.2879C75.0201 75.8674 68.0413 80.0857 60.6073 80.0857C53.1733 80.0857 46.1946 75.8674 41.1759 71.2879C38.6581 68.9904 36.606 66.5774 35.2092 64.5061C34.5115 63.4714 33.9688 62.5095 33.6144 61.6801C33.2889 60.9182 33.0822 60.1789 33.1393 59.5752C33.0822 58.9715 33.2889 58.2322 33.6144 57.4703C33.9688 56.6409 34.5115 55.6791 35.2092 54.6443C36.606 52.573 38.6581 50.16 41.1759 47.8625ZM34.7988 57.9765C34.4736 58.7376 34.3894 59.2345 34.4251 59.4841L34.4381 59.5752L34.4251 59.6663C34.3894 59.9159 34.4736 60.4128 34.7988 61.174C35.1118 61.9063 35.6091 62.7953 36.2771 63.786C37.612 65.7656 39.5953 68.1019 42.0441 70.3365C46.9587 74.821 53.6381 78.7977 60.6073 78.7977C67.5765 78.7977 74.256 74.821 79.1706 70.3365C81.6194 68.1019 83.6026 65.7656 84.9375 63.786C85.6056 62.7953 86.1029 61.9063 86.4158 61.174C86.7411 60.4128 86.8252 59.9159 86.7895 59.6663L86.7765 59.5752L86.7895 59.4841C86.8252 59.2345 86.7411 58.7376 86.4158 57.9765C86.1029 57.2441 85.6056 56.3551 84.9375 55.3644C83.6026 53.3848 81.6194 51.0485 79.1706 48.8139C74.256 44.3294 67.5765 40.3527 60.6073 40.3527C53.6381 40.3527 46.9587 44.3294 42.0441 48.8139C39.5953 51.0485 37.612 53.3848 36.2771 55.3644C35.6091 56.3551 35.1118 57.2441 34.7988 57.9765ZM49.5136 49.5824C52.0021 46.8319 55.7182 45.0247 60.6073 45.0247C65.4964 45.0247 69.2125 46.8319 71.701 49.5824C74.1796 52.3219 75.4062 55.9582 75.4062 59.5752C75.4062 63.1922 74.1796 66.8285 71.701 69.568C69.2125 72.3185 65.4964 74.1258 60.6073 74.1258C55.7182 74.1258 52.0021 72.3185 49.5136 69.568C47.035 66.8285 45.8084 63.1922 45.8084 59.5752C45.8084 55.9582 47.035 52.3219 49.5136 49.5824ZM50.4687 68.7039C52.6985 71.1684 56.0599 72.8377 60.6073 72.8377C65.1548 72.8377 68.5162 71.1684 70.7459 68.7039C72.9856 66.2284 74.1182 62.9115 74.1182 59.5752C74.1182 56.2389 72.9856 52.922 70.7459 50.4465C68.5162 47.9821 65.1548 46.3127 60.6073 46.3127C56.0599 46.3127 52.6985 47.9821 50.4687 50.4465C48.229 52.922 47.0965 56.2389 47.0965 59.5752C47.0965 62.9115 48.229 66.2284 50.4687 68.7039ZM58.8974 52.5356C59.4636 52.364 60.0385 52.2726 60.6073 52.2726C62.3845 52.2726 64.2156 53.1677 65.6152 54.5673C67.0148 55.9669 67.9099 57.798 67.9099 59.5752C67.9099 61.3524 67.0148 63.1835 65.6152 64.5831C64.2156 65.9827 62.3845 66.8778 60.6073 66.8778C58.8301 66.8778 56.999 65.9827 55.5994 64.5831C54.1998 63.1835 53.3047 61.3524 53.3047 59.5752C53.3047 58.7048 53.5188 57.8204 53.9054 56.9768L61.1165 60.8457L58.8974 52.5356ZM57.8839 51.5266C58.7535 51.1819 59.6751 50.9846 60.6073 50.9846C62.8034 50.9846 64.9456 52.0762 66.526 53.6565C68.1064 55.2369 69.1979 57.3791 69.1979 59.5752C69.1979 61.7713 68.1064 63.9135 66.526 65.4939C64.9456 67.0742 62.8034 68.1658 60.6073 68.1658C58.4112 68.1658 56.269 67.0742 54.6887 65.4939C53.1083 63.9135 52.0167 61.7713 52.0167 59.5752C52.0167 58.2517 52.4141 56.9491 53.0692 55.7831L53.3786 55.2325L59.1048 58.3047L57.3512 51.7378L57.8839 51.5266Z" fill="white"/>
<defs>
<filter id="filter0_i_12_32" x="0.5" y="0.853622" width="120" height="120.78" filterUnits="userSpaceOnUse" color-interpolation-filters="sRGB">
<feFlood flood-opacity="0" result="BackgroundImageFix"/>
<feBlend mode="normal" in="SourceGraphic" in2="BackgroundImageFix" result="shape"/>
<feColorMatrix in="SourceAlpha" type="matrix" values="0 0 0 0 0 0 0 0 0 0 0 0 0 0 0 0 0 0 127 0" result="hardAlpha"/>
<feOffset dy="4"/>
<feGaussianBlur stdDeviation="2"/>
<feComposite in2="hardAlpha" operator="arithmetic" k2="-1" k3="1"/>
<feColorMatrix type="matrix" values="0 0 0 0 0 0 0 0 0 0 0 0 0 0 0 0 0 0 0.25 0"/>
<feBlend mode="normal" in2="shape" result="effect1_innerShadow_12_32"/>
</filter>
<filter id="filter1_d_12_32" x="42.4525" y="45.6687" width="36.3098" height="35.8131" filterUnits="userSpaceOnUse" color-interpolation-filters="sRGB">
<feFlood flood-opacity="0" result="BackgroundImageFix"/>
<feColorMatrix in="SourceAlpha" type="matrix" values="0 0 0 0 0 0 0 0 0 0 0 0 0 0 0 0 0 0 127 0" result="hardAlpha"/>
<feOffset dy="4"/>
<feGaussianBlur stdDeviation="2"/>
<feComposite in2="hardAlpha" operator="out"/>
<feColorMatrix type="matrix" values="0 0 0 0 0 0 0 0 0 0 0 0 0 0 0 0 0 0 0.25 0"/>
<feBlend mode="normal" in2="BackgroundImageFix" result="effect1_dropShadow_12_32"/>
<feBlend mode="normal" in="SourceGraphic" in2="effect1_dropShadow_12_32" result="shape"/>
</filter>
<radialGradient id="paint0_radial_12_32" cx="0" cy="0" r="1" gradientUnits="userSpaceOnUse" gradientTransform="translate(60.5 59.2436) rotate(90) scale(58.39 60)">
<stop offset="0.260417" stop-color="#FD0D0D"/>
<stop offset="1" stop-color="#FFC700"/>
</radialGradient>
</defs>
</svg>
