<svg width="725" height="202" viewBox="0 0 725 202" fill="none" xmlns="http://www.w3.org/2000/svg">
<path d="M84.9 155C74.5 155 64.7667 153.2 55.7 149.6C46.6333 145.867 38.7 140.733 31.9 134.2C25.2333 127.667 19.9667 120.067 16.1 111.4C12.3667 102.6 10.5 93.1333 10.5 83C10.5 72.7333 12.3667 63.2667 16.1 54.6C19.9667 45.8 25.3 38.1333 32.1 31.6C38.9 25.0667 46.7667 20 55.7 16.4C64.7667 12.6667 74.5 10.8 84.9 10.8C92.6333 10.8 100.1 11.8667 107.3 14C114.5 16.1333 121.167 19.1333 127.3 23C133.567 26.8667 138.9 31.5333 143.3 37L123.7 56.4C118.633 50.1333 112.767 45.4 106.1 42.2C99.5667 39 92.5 37.4 84.9 37.4C78.6333 37.4 72.7667 38.6 67.3 41C61.8333 43.2667 57.1 46.4667 53.1 50.6C49.1 54.6 45.9667 59.4 43.7 65C41.4333 70.4667 40.3 76.4667 40.3 83C40.3 89.4 41.4333 95.4 43.7 101C45.9667 106.467 49.1667 111.267 53.3 115.4C57.4333 119.4 62.2333 122.533 67.7 124.8C73.3 127.067 79.3667 128.2 85.9 128.2C93.2333 128.2 100.1 126.667 106.5 123.6C112.9 120.533 118.567 116.133 123.5 110.4L142.5 129.2C138.1 134.533 132.833 139.133 126.7 143C120.567 146.867 113.9 149.867 106.7 152C99.6333 154 92.3667 155 84.9 155ZM171.464 155C167.064 155 163.264 153.4 160.064 150.2C156.864 147 155.264 143.2 155.264 138.8C155.264 134.267 156.864 130.4 160.064 127.2C163.264 124 167.064 122.4 171.464 122.4C175.864 122.4 179.664 124 182.864 127.2C186.064 130.4 187.664 134.267 187.664 138.8C187.664 143.2 186.064 147 182.864 150.2C179.664 153.4 175.864 155 171.464 155ZM197.617 153L255.217 13H288.617L345.617 153H314.217L300.017 116.2H242.217L227.817 153H197.617ZM251.217 93H291.217L271.217 41.4L251.217 93ZM371.855 155C367.455 155 363.655 153.4 360.455 150.2C357.255 147 355.655 143.2 355.655 138.8C355.655 134.267 357.255 130.4 360.455 127.2C363.655 124 367.455 122.4 371.855 122.4C376.255 122.4 380.055 124 383.255 127.2C386.455 130.4 388.055 134.267 388.055 138.8C388.055 143.2 386.455 147 383.255 150.2C380.055 153.4 376.255 155 371.855 155ZM469.852 155.2C459.452 155.2 449.785 153.4 440.852 149.8C431.918 146.067 424.052 140.933 417.252 134.4C410.585 127.733 405.318 120.067 401.452 111.4C397.718 102.6 395.852 93.1333 395.852 83C395.852 72.8667 397.718 63.4667 401.452 54.8C405.318 46 410.585 38.3333 417.252 31.8C424.052 25.1333 431.918 20 440.852 16.4C449.785 12.6667 459.452 10.8 469.852 10.8C480.252 10.8 489.918 12.6667 498.852 16.4C507.918 20 515.785 25.1333 522.452 31.8C529.252 38.3333 534.518 46 538.252 54.8C541.985 63.4667 543.852 72.8667 543.852 83C543.852 93.1333 541.985 102.6 538.252 111.4C534.518 120.067 529.252 127.733 522.452 134.4C515.785 140.933 507.918 146.067 498.852 149.8C489.918 153.4 480.252 155.2 469.852 155.2ZM469.852 128.6C476.252 128.6 482.118 127.467 487.452 125.2C492.785 122.8 497.452 119.6 501.452 115.6C505.452 111.467 508.585 106.6 510.852 101C513.118 95.4 514.252 89.4 514.252 83C514.252 76.4667 513.118 70.4667 510.852 65C508.585 59.4 505.452 54.6 501.452 50.6C497.452 46.4667 492.785 43.2667 487.452 41C482.118 38.6 476.252 37.4 469.852 37.4C463.585 37.4 457.785 38.6 452.452 41C447.118 43.2667 442.452 46.4667 438.452 50.6C434.452 54.6 431.318 59.4 429.052 65C426.785 70.4667 425.652 76.4 425.652 82.8C425.652 89.3333 426.785 95.4 429.052 101C431.318 106.6 434.452 111.467 438.452 115.6C442.452 119.6 447.118 122.8 452.452 125.2C457.785 127.467 463.585 128.6 469.852 128.6ZM568.144 155C563.744 155 559.944 153.4 556.744 150.2C553.544 147 551.944 143.2 551.944 138.8C551.944 134.267 553.544 130.4 556.744 127.2C559.944 124 563.744 122.4 568.144 122.4C572.544 122.4 576.344 124 579.544 127.2C582.744 130.4 584.344 134.267 584.344 138.8C584.344 143.2 582.744 147 579.544 150.2C576.344 153.4 572.544 155 568.144 155ZM655.744 155C644.41 155 633.344 152.933 622.544 148.8C611.744 144.533 602.144 138.533 593.744 130.8L610.344 110C618.477 117.2 626.277 122.4 633.744 125.6C641.344 128.8 649.344 130.4 657.744 130.4C663.61 130.4 668.677 129.733 672.944 128.4C677.21 126.933 680.477 124.867 682.744 122.2C685.144 119.533 686.344 116.4 686.344 112.8C686.344 108 684.61 104.333 681.144 101.8C677.677 99.1333 671.744 97.0667 663.344 95.6L635.544 90.8C623.677 88.8 614.61 84.6 608.344 78.2C602.21 71.8 599.144 63.5333 599.144 53.4C599.144 44.7333 601.344 37.2 605.744 30.8C610.277 24.4 616.61 19.5333 624.744 16.2C633.01 12.7333 642.81 11 654.144 11C664.41 11 674.61 12.7333 684.744 16.2C695.01 19.6667 704.077 24.4666 711.944 30.6L696.344 52.2C681.677 41 666.944 35.4 652.144 35.4C646.944 35.4 642.41 36.0667 638.544 37.4C634.677 38.7333 631.677 40.6 629.544 43C627.544 45.2667 626.544 48 626.544 51.2C626.544 55.4667 628.077 58.8 631.144 61.2C634.21 63.4667 639.344 65.2 646.544 66.4L672.944 70.8C686.944 73.0667 697.41 77.5333 704.344 84.2C711.277 90.7333 714.744 99.4 714.744 110.2C714.744 119.267 712.344 127.2 707.544 134C702.744 140.667 695.877 145.867 686.944 149.6C678.144 153.2 667.744 155 655.744 155Z" stroke="url(#paint0_linear_9_3)" stroke-width="10"/>
<path d="M143.282 195.4C142.242 195.4 141.269 195.22 140.362 194.86C139.455 194.487 138.662 193.973 137.982 193.32C137.315 192.667 136.789 191.907 136.402 191.04C136.029 190.16 135.842 189.213 135.842 188.2C135.842 187.173 136.029 186.227 136.402 185.36C136.789 184.48 137.322 183.713 138.002 183.06C138.682 182.407 139.469 181.9 140.362 181.54C141.269 181.167 142.242 180.98 143.282 180.98C144.055 180.98 144.802 181.087 145.522 181.3C146.242 181.513 146.909 181.813 147.522 182.2C148.149 182.587 148.682 183.053 149.122 183.6L147.162 185.54C146.655 184.913 146.069 184.44 145.402 184.12C144.749 183.8 144.042 183.64 143.282 183.64C142.655 183.64 142.069 183.76 141.522 184C140.975 184.227 140.502 184.547 140.102 184.96C139.702 185.36 139.389 185.84 139.162 186.4C138.935 186.947 138.822 187.547 138.822 188.2C138.822 188.84 138.935 189.44 139.162 190C139.389 190.547 139.709 191.027 140.122 191.44C140.535 191.84 141.015 192.153 141.562 192.38C142.122 192.607 142.729 192.72 143.382 192.72C144.115 192.72 144.802 192.567 145.442 192.26C146.082 191.953 146.649 191.513 147.142 190.94L149.042 192.82C148.602 193.353 148.075 193.813 147.462 194.2C146.849 194.587 146.182 194.887 145.462 195.1C144.755 195.3 144.029 195.4 143.282 195.4ZM157.304 195.42C156.264 195.42 155.298 195.24 154.404 194.88C153.511 194.507 152.724 193.993 152.044 193.34C151.378 192.673 150.851 191.907 150.464 191.04C150.091 190.16 149.904 189.213 149.904 188.2C149.904 187.187 150.091 186.247 150.464 185.38C150.851 184.5 151.378 183.733 152.044 183.08C152.724 182.413 153.511 181.9 154.404 181.54C155.298 181.167 156.264 180.98 157.304 180.98C158.344 180.98 159.311 181.167 160.204 181.54C161.111 181.9 161.898 182.413 162.564 183.08C163.244 183.733 163.771 184.5 164.144 185.38C164.518 186.247 164.704 187.187 164.704 188.2C164.704 189.213 164.518 190.16 164.144 191.04C163.771 191.907 163.244 192.673 162.564 193.34C161.898 193.993 161.111 194.507 160.204 194.88C159.311 195.24 158.344 195.42 157.304 195.42ZM157.304 192.76C157.944 192.76 158.531 192.647 159.064 192.42C159.598 192.18 160.064 191.86 160.464 191.46C160.864 191.047 161.178 190.56 161.404 190C161.631 189.44 161.744 188.84 161.744 188.2C161.744 187.547 161.631 186.947 161.404 186.4C161.178 185.84 160.864 185.36 160.464 184.96C160.064 184.547 159.598 184.227 159.064 184C158.531 183.76 157.944 183.64 157.304 183.64C156.678 183.64 156.098 183.76 155.564 184C155.031 184.227 154.564 184.547 154.164 184.96C153.764 185.36 153.451 185.84 153.224 186.4C152.998 186.947 152.884 187.54 152.884 188.18C152.884 188.833 152.998 189.44 153.224 190C153.451 190.56 153.764 191.047 154.164 191.46C154.564 191.86 155.031 192.18 155.564 192.42C156.098 192.647 156.678 192.76 157.304 192.76ZM166.714 195.2V181.2H169.474L176.434 190.24V181.2H179.154V195.2H176.594L169.454 185.84V195.2H166.714ZM185.514 195.2V183.76H180.794V181.2H193.114V183.76H188.414V195.2H185.514ZM194.741 195.2V181.2H201.581C202.528 181.2 203.361 181.387 204.081 181.76C204.815 182.12 205.381 182.627 205.781 183.28C206.195 183.933 206.401 184.687 206.401 185.54C206.401 186.433 206.155 187.22 205.661 187.9C205.168 188.58 204.508 189.087 203.681 189.42L206.781 195.2H203.541L200.801 189.84H197.641V195.2H194.741ZM197.641 187.46H201.321C201.975 187.46 202.495 187.287 202.881 186.94C203.281 186.593 203.481 186.14 203.481 185.58C203.481 185.02 203.281 184.567 202.881 184.22C202.495 183.873 201.975 183.7 201.321 183.7H197.641V187.46ZM215.175 195.42C214.135 195.42 213.169 195.24 212.275 194.88C211.382 194.507 210.595 193.993 209.915 193.34C209.249 192.673 208.722 191.907 208.335 191.04C207.962 190.16 207.775 189.213 207.775 188.2C207.775 187.187 207.962 186.247 208.335 185.38C208.722 184.5 209.249 183.733 209.915 183.08C210.595 182.413 211.382 181.9 212.275 181.54C213.169 181.167 214.135 180.98 215.175 180.98C216.215 180.98 217.182 181.167 218.075 181.54C218.982 181.9 219.769 182.413 220.435 183.08C221.115 183.733 221.642 184.5 222.015 185.38C222.389 186.247 222.575 187.187 222.575 188.2C222.575 189.213 222.389 190.16 222.015 191.04C221.642 191.907 221.115 192.673 220.435 193.34C219.769 193.993 218.982 194.507 218.075 194.88C217.182 195.24 216.215 195.42 215.175 195.42ZM215.175 192.76C215.815 192.76 216.402 192.647 216.935 192.42C217.469 192.18 217.935 191.86 218.335 191.46C218.735 191.047 219.049 190.56 219.275 190C219.502 189.44 219.615 188.84 219.615 188.2C219.615 187.547 219.502 186.947 219.275 186.4C219.049 185.84 218.735 185.36 218.335 184.96C217.935 184.547 217.469 184.227 216.935 184C216.402 183.76 215.815 183.64 215.175 183.64C214.549 183.64 213.969 183.76 213.435 184C212.902 184.227 212.435 184.547 212.035 184.96C211.635 185.36 211.322 185.84 211.095 186.4C210.869 186.947 210.755 187.54 210.755 188.18C210.755 188.833 210.869 189.44 211.095 190C211.322 190.56 211.635 191.047 212.035 191.46C212.435 191.86 212.902 192.18 213.435 192.42C213.969 192.647 214.549 192.76 215.175 192.76ZM224.585 195.2V181.2H227.485V192.64H235.145V195.2H224.585ZM239.827 195.2L245.587 181.2H248.927L254.627 195.2H251.487L250.067 191.52H244.287L242.847 195.2H239.827ZM245.187 189.2H249.187L247.187 184.04L245.187 189.2ZM255.815 195.2V181.2H258.575L265.535 190.24V181.2H268.255V195.2H265.695L258.555 185.84V195.2H255.815ZM273.696 192.62H276.136C276.763 192.62 277.343 192.513 277.876 192.3C278.423 192.073 278.896 191.76 279.296 191.36C279.709 190.96 280.023 190.493 280.236 189.96C280.463 189.427 280.576 188.847 280.576 188.22C280.576 187.593 280.463 187.013 280.236 186.48C280.009 185.933 279.696 185.46 279.296 185.06C278.896 184.66 278.423 184.347 277.876 184.12C277.343 183.893 276.763 183.78 276.136 183.78H273.696V192.62ZM270.796 195.2V181.2H276.176C277.229 181.2 278.203 181.38 279.096 181.74C279.989 182.087 280.769 182.58 281.436 183.22C282.103 183.86 282.623 184.607 282.996 185.46C283.383 186.313 283.576 187.233 283.576 188.22C283.576 189.22 283.389 190.14 283.016 190.98C282.643 191.82 282.116 192.56 281.436 193.2C280.769 193.827 279.989 194.32 279.096 194.68C278.203 195.027 277.229 195.2 276.176 195.2H270.796ZM288.245 195.2L294.005 181.2H297.345L303.045 195.2H299.905L298.485 191.52H292.705L291.265 195.2H288.245ZM293.605 189.2H297.605L295.605 184.04L293.605 189.2ZM310.352 195.4C309.312 195.4 308.339 195.22 307.432 194.86C306.526 194.487 305.732 193.973 305.052 193.32C304.386 192.667 303.859 191.907 303.472 191.04C303.099 190.16 302.912 189.213 302.912 188.2C302.912 187.173 303.099 186.227 303.472 185.36C303.859 184.48 304.392 183.713 305.072 183.06C305.752 182.407 306.539 181.9 307.432 181.54C308.339 181.167 309.312 180.98 310.352 180.98C311.126 180.98 311.872 181.087 312.592 181.3C313.312 181.513 313.979 181.813 314.592 182.2C315.219 182.587 315.752 183.053 316.192 183.6L314.232 185.54C313.726 184.913 313.139 184.44 312.472 184.12C311.819 183.8 311.112 183.64 310.352 183.64C309.726 183.64 309.139 183.76 308.592 184C308.046 184.227 307.572 184.547 307.172 184.96C306.772 185.36 306.459 185.84 306.232 186.4C306.006 186.947 305.892 187.547 305.892 188.2C305.892 188.84 306.006 189.44 306.232 190C306.459 190.547 306.779 191.027 307.192 191.44C307.606 191.84 308.086 192.153 308.632 192.38C309.192 192.607 309.799 192.72 310.452 192.72C311.186 192.72 311.872 192.567 312.512 192.26C313.152 191.953 313.719 191.513 314.212 190.94L316.112 192.82C315.672 193.353 315.146 193.813 314.532 194.2C313.919 194.587 313.252 194.887 312.532 195.1C311.826 195.3 311.099 195.4 310.352 195.4ZM324.415 195.4C323.375 195.4 322.401 195.22 321.495 194.86C320.588 194.487 319.795 193.973 319.115 193.32C318.448 192.667 317.921 191.907 317.535 191.04C317.161 190.16 316.975 189.213 316.975 188.2C316.975 187.173 317.161 186.227 317.535 185.36C317.921 184.48 318.455 183.713 319.135 183.06C319.815 182.407 320.601 181.9 321.495 181.54C322.401 181.167 323.375 180.98 324.415 180.98C325.188 180.98 325.935 181.087 326.655 181.3C327.375 181.513 328.041 181.813 328.655 182.2C329.281 182.587 329.815 183.053 330.255 183.6L328.295 185.54C327.788 184.913 327.201 184.44 326.535 184.12C325.881 183.8 325.175 183.64 324.415 183.64C323.788 183.64 323.201 183.76 322.655 184C322.108 184.227 321.635 184.547 321.235 184.96C320.835 185.36 320.521 185.84 320.295 186.4C320.068 186.947 319.955 187.547 319.955 188.2C319.955 188.84 320.068 189.44 320.295 190C320.521 190.547 320.841 191.027 321.255 191.44C321.668 191.84 322.148 192.153 322.695 192.38C323.255 192.607 323.861 192.72 324.515 192.72C325.248 192.72 325.935 192.567 326.575 192.26C327.215 191.953 327.781 191.513 328.275 190.94L330.175 192.82C329.735 193.353 329.208 193.813 328.595 194.2C327.981 194.587 327.315 194.887 326.595 195.1C325.888 195.3 325.161 195.4 324.415 195.4ZM338.437 195.42C337.397 195.42 336.431 195.24 335.537 194.88C334.644 194.507 333.857 193.993 333.177 193.34C332.511 192.673 331.984 191.907 331.597 191.04C331.224 190.16 331.037 189.213 331.037 188.2C331.037 187.187 331.224 186.247 331.597 185.38C331.984 184.5 332.511 183.733 333.177 183.08C333.857 182.413 334.644 181.9 335.537 181.54C336.431 181.167 337.397 180.98 338.437 180.98C339.477 180.98 340.444 181.167 341.337 181.54C342.244 181.9 343.031 182.413 343.697 183.08C344.377 183.733 344.904 184.5 345.277 185.38C345.651 186.247 345.837 187.187 345.837 188.2C345.837 189.213 345.651 190.16 345.277 191.04C344.904 191.907 344.377 192.673 343.697 193.34C343.031 193.993 342.244 194.507 341.337 194.88C340.444 195.24 339.477 195.42 338.437 195.42ZM338.437 192.76C339.077 192.76 339.664 192.647 340.197 192.42C340.731 192.18 341.197 191.86 341.597 191.46C341.997 191.047 342.311 190.56 342.537 190C342.764 189.44 342.877 188.84 342.877 188.2C342.877 187.547 342.764 186.947 342.537 186.4C342.311 185.84 341.997 185.36 341.597 184.96C341.197 184.547 340.731 184.227 340.197 184C339.664 183.76 339.077 183.64 338.437 183.64C337.811 183.64 337.231 183.76 336.697 184C336.164 184.227 335.697 184.547 335.297 184.96C334.897 185.36 334.584 185.84 334.357 186.4C334.131 186.947 334.017 187.54 334.017 188.18C334.017 188.833 334.131 189.44 334.357 190C334.584 190.56 334.897 191.047 335.297 191.46C335.697 191.86 336.164 192.18 336.697 192.42C337.231 192.647 337.811 192.76 338.437 192.76ZM353.827 195.4C352.56 195.4 351.46 195.147 350.527 194.64C349.607 194.133 348.893 193.413 348.387 192.48C347.88 191.533 347.627 190.427 347.627 189.16V181.2H350.527V189.16C350.527 189.88 350.66 190.513 350.927 191.06C351.207 191.593 351.593 192.007 352.087 192.3C352.593 192.58 353.18 192.72 353.847 192.72C354.513 192.72 355.093 192.58 355.587 192.3C356.08 192.007 356.46 191.593 356.727 191.06C357.007 190.513 357.147 189.88 357.147 189.16V181.2H360.027V189.16C360.027 190.413 359.773 191.513 359.267 192.46C358.76 193.393 358.04 194.12 357.107 194.64C356.187 195.147 355.093 195.4 353.827 195.4ZM362.339 195.2V181.2H365.099L372.059 190.24V181.2H374.779V195.2H372.219L365.079 185.84V195.2H362.339ZM381.139 195.2V183.76H376.419V181.2H388.739V183.76H384.039V195.2H381.139ZM390.366 195.2V181.2H393.266V195.2H390.366ZM395.815 195.2V181.2H398.575L405.535 190.24V181.2H408.255V195.2H405.695L398.555 185.84V195.2H395.815ZM417.676 195.42C416.636 195.42 415.669 195.24 414.776 194.88C413.883 194.507 413.096 193.993 412.416 193.34C411.736 192.673 411.203 191.907 410.816 191.04C410.443 190.16 410.256 189.213 410.256 188.2C410.256 187.187 410.443 186.247 410.816 185.38C411.203 184.5 411.729 183.733 412.396 183.08C413.063 182.413 413.843 181.9 414.736 181.54C415.643 181.167 416.609 180.98 417.636 180.98C418.796 180.98 419.889 181.213 420.916 181.68C421.943 182.133 422.789 182.773 423.456 183.6L421.436 185.46C420.956 184.86 420.389 184.407 419.736 184.1C419.083 183.793 418.383 183.64 417.636 183.64C417.009 183.64 416.429 183.76 415.896 184C415.363 184.227 414.896 184.547 414.496 184.96C414.096 185.36 413.783 185.84 413.556 186.4C413.343 186.947 413.236 187.547 413.236 188.2C413.236 188.853 413.349 189.46 413.576 190.02C413.803 190.58 414.116 191.067 414.516 191.48C414.929 191.88 415.403 192.2 415.936 192.44C416.483 192.667 417.076 192.78 417.716 192.78C418.383 192.78 418.983 192.66 419.516 192.42C420.049 192.167 420.496 191.82 420.856 191.38C421.229 190.927 421.476 190.42 421.596 189.86H417.456V187.34H424.696V188.22C424.696 189.26 424.516 190.22 424.156 191.1C423.809 191.967 423.323 192.727 422.696 193.38C422.069 194.02 421.329 194.52 420.476 194.88C419.623 195.24 418.689 195.42 417.676 195.42ZM437.558 195.42C436.518 195.42 435.552 195.24 434.658 194.88C433.765 194.507 432.978 193.993 432.298 193.34C431.632 192.673 431.105 191.907 430.718 191.04C430.345 190.16 430.158 189.213 430.158 188.2C430.158 187.187 430.345 186.247 430.718 185.38C431.105 184.5 431.632 183.733 432.298 183.08C432.978 182.413 433.765 181.9 434.658 181.54C435.552 181.167 436.518 180.98 437.558 180.98C438.598 180.98 439.565 181.167 440.458 181.54C441.365 181.9 442.152 182.413 442.818 183.08C443.498 183.733 444.025 184.5 444.398 185.38C444.772 186.247 444.958 187.187 444.958 188.2C444.958 189.213 444.772 190.16 444.398 191.04C444.025 191.907 443.498 192.673 442.818 193.34C442.152 193.993 441.365 194.507 440.458 194.88C439.565 195.24 438.598 195.42 437.558 195.42ZM437.558 192.76C438.198 192.76 438.785 192.647 439.318 192.42C439.852 192.18 440.318 191.86 440.718 191.46C441.118 191.047 441.432 190.56 441.658 190C441.885 189.44 441.998 188.84 441.998 188.2C441.998 187.547 441.885 186.947 441.658 186.4C441.432 185.84 441.118 185.36 440.718 184.96C440.318 184.547 439.852 184.227 439.318 184C438.785 183.76 438.198 183.64 437.558 183.64C436.932 183.64 436.352 183.76 435.818 184C435.285 184.227 434.818 184.547 434.418 184.96C434.018 185.36 433.705 185.84 433.478 186.4C433.252 186.947 433.138 187.54 433.138 188.18C433.138 188.833 433.252 189.44 433.478 190C433.705 190.56 434.018 191.047 434.418 191.46C434.818 191.86 435.285 192.18 435.818 192.42C436.352 192.647 436.932 192.76 437.558 192.76ZM446.968 195.2V181.2H457.788V183.72H449.868V187.02H455.128V189.46H449.868V195.2H446.968ZM459.741 195.2V181.2H470.561V183.72H462.641V187.02H467.901V189.46H462.641V195.2H459.741ZM472.515 195.2V181.2H475.415V195.2H472.515ZM484.864 195.4C483.824 195.4 482.851 195.22 481.944 194.86C481.037 194.487 480.244 193.973 479.564 193.32C478.897 192.667 478.371 191.907 477.984 191.04C477.611 190.16 477.424 189.213 477.424 188.2C477.424 187.173 477.611 186.227 477.984 185.36C478.371 184.48 478.904 183.713 479.584 183.06C480.264 182.407 481.051 181.9 481.944 181.54C482.851 181.167 483.824 180.98 484.864 180.98C485.637 180.98 486.384 181.087 487.104 181.3C487.824 181.513 488.491 181.813 489.104 182.2C489.731 182.587 490.264 183.053 490.704 183.6L488.744 185.54C488.237 184.913 487.651 184.44 486.984 184.12C486.331 183.8 485.624 183.64 484.864 183.64C484.237 183.64 483.651 183.76 483.104 184C482.557 184.227 482.084 184.547 481.684 184.96C481.284 185.36 480.971 185.84 480.744 186.4C480.517 186.947 480.404 187.547 480.404 188.2C480.404 188.84 480.517 189.44 480.744 190C480.971 190.547 481.291 191.027 481.704 191.44C482.117 191.84 482.597 192.153 483.144 192.38C483.704 192.607 484.311 192.72 484.964 192.72C485.697 192.72 486.384 192.567 487.024 192.26C487.664 191.953 488.231 191.513 488.724 190.94L490.624 192.82C490.184 193.353 489.657 193.813 489.044 194.2C488.431 194.587 487.764 194.887 487.044 195.1C486.337 195.3 485.611 195.4 484.864 195.4ZM492.319 195.2V181.2H503.079V183.72H495.219V186.92H500.399V189.36H495.219V192.68H503.159V195.2H492.319ZM514.233 195.4C513.1 195.4 511.993 195.193 510.913 194.78C509.833 194.353 508.873 193.753 508.033 192.98L509.693 190.9C510.507 191.62 511.287 192.14 512.033 192.46C512.793 192.78 513.593 192.94 514.433 192.94C515.02 192.94 515.527 192.873 515.953 192.74C516.38 192.593 516.707 192.387 516.933 192.12C517.173 191.853 517.293 191.54 517.293 191.18C517.293 190.7 517.12 190.333 516.773 190.08C516.427 189.813 515.833 189.607 514.993 189.46L512.213 188.98C511.027 188.78 510.12 188.36 509.493 187.72C508.88 187.08 508.573 186.253 508.573 185.24C508.573 184.373 508.793 183.62 509.233 182.98C509.687 182.34 510.32 181.853 511.133 181.52C511.96 181.173 512.94 181 514.073 181C515.1 181 516.12 181.173 517.133 181.52C518.16 181.867 519.067 182.347 519.853 182.96L518.293 185.12C516.827 184 515.353 183.44 513.873 183.44C513.353 183.44 512.9 183.507 512.513 183.64C512.127 183.773 511.827 183.96 511.613 184.2C511.413 184.427 511.313 184.7 511.313 185.02C511.313 185.447 511.467 185.78 511.773 186.02C512.08 186.247 512.593 186.42 513.313 186.54L515.953 186.98C517.353 187.207 518.4 187.653 519.093 188.32C519.787 188.973 520.133 189.84 520.133 190.92C520.133 191.827 519.893 192.62 519.413 193.3C518.933 193.967 518.247 194.487 517.353 194.86C516.473 195.22 515.433 195.4 514.233 195.4ZM525.683 195.2V189.84L519.963 181.2H523.303L527.223 187.28L531.163 181.2H534.323L528.583 189.86V195.2H525.683ZM540.19 195.4C539.057 195.4 537.95 195.193 536.87 194.78C535.79 194.353 534.83 193.753 533.99 192.98L535.65 190.9C536.464 191.62 537.244 192.14 537.99 192.46C538.75 192.78 539.55 192.94 540.39 192.94C540.977 192.94 541.484 192.873 541.91 192.74C542.337 192.593 542.664 192.387 542.89 192.12C543.13 191.853 543.25 191.54 543.25 191.18C543.25 190.7 543.077 190.333 542.73 190.08C542.384 189.813 541.79 189.607 540.95 189.46L538.17 188.98C536.984 188.78 536.077 188.36 535.45 187.72C534.837 187.08 534.53 186.253 534.53 185.24C534.53 184.373 534.75 183.62 535.19 182.98C535.644 182.34 536.277 181.853 537.09 181.52C537.917 181.173 538.897 181 540.03 181C541.057 181 542.077 181.173 543.09 181.52C544.117 181.867 545.024 182.347 545.81 182.96L544.25 185.12C542.784 184 541.31 183.44 539.83 183.44C539.31 183.44 538.857 183.507 538.47 183.64C538.084 183.773 537.784 183.96 537.57 184.2C537.37 184.427 537.27 184.7 537.27 185.02C537.27 185.447 537.424 185.78 537.73 186.02C538.037 186.247 538.55 186.42 539.27 186.54L541.91 186.98C543.31 187.207 544.357 187.653 545.05 188.32C545.744 188.973 546.09 189.84 546.09 190.92C546.09 191.827 545.85 192.62 545.37 193.3C544.89 193.967 544.204 194.487 543.31 194.86C542.43 195.22 541.39 195.4 540.19 195.4ZM551.335 195.2V183.76H546.615V181.2H558.935V183.76H554.235V195.2H551.335ZM560.562 195.2V181.2H571.322V183.72H563.462V186.92H568.642V189.36H563.462V192.68H571.402V195.2H560.562ZM573.452 195.2V181.2H577.172L581.012 188.76L584.852 181.2H588.572V195.2H585.832V184.9L580.972 194.2L576.132 184.86V195.2H573.452Z" fill="black"/>
<defs>
<linearGradient id="paint0_linear_9_3" x1="361.8" y1="-51" x2="361.8" y2="214" gradientUnits="userSpaceOnUse">
<stop stop-color="#FD0D0D"/>
<stop offset="1" stop-color="#FFC700"/>
</linearGradient>
</defs>
</svg>
